# AST/ASF file generated using VICON BodyLanguage
# -----------------------------------------------
:version 1.10
:name VICON
:units
  mass 1.0
  length 0.45
  angle deg
:documentation
   .ast/.asf automatically generated from VICON data using
   VICON BodyBuilder and BodyLanguage model FoxedUp or BRILLIANT.MOD
:root
   order TX TY TZ RX RY RZ
   axis XYZ
   position 0 0 0  
   orientation 0 0 0 
:bonedata
  begin
     id 1 
     name lhipjoint
     direction 0.522423 -0.726805 0.445902 
     length 2.25074 
     axis 0 0 0  XYZ
  end
  begin
     id 2 
     name lfemur
     direction 0.34202 -0.939693 0  
     length 6.54609  
     axis 0 0 20  XYZ
    dof rx ry rz
    limits (-160.0 20.0)
           (-70.0 70.0)
           (-60.0 70.0)
  end
  begin
     id 3 
     name ltibia
     direction 0.34202 -0.939693 0   
     length 7.7528   
     axis 0 0 20   XYZ
    dof rx
    limits (-10.0 170.0)
  end
  begin
     id 4 
     name lfoot
     direction 0.143696 -0.394801 0.90746   
     length 1.73269   
     axis -90 7.62852e-016 20   XYZ
    dof rx rz
    limits (-45.0 90.0)
           (-70.0 20.0)
  end
  begin
     id 5 
     name ltoes
     direction 1.53633e-011 -4.21912e-011 1   
     length 0.858383   
     axis -90 7.62852e-016 20   XYZ
    dof rx
    limits (-90.0 20.0)
  end
  begin
     id 6 
     name rhipjoint
     direction -0.515943 -0.73016 0.447961   
     length 2.2404  
     axis 0 0 0  XYZ 
  end
  begin
     id 7 
     name rfemur
     direction -0.34202 -0.939693 0   
     length 6.84377   
     axis 0 0 -20   XYZ
    dof rx ry rz
    limits (-160.0 20.0)
           (-70.0 70.0)
           (-70.0 60.0)
  end
  begin
     id 8 
     name rtibia
     direction -0.34202 -0.939693 0   
     length 7.57596   
     axis 0 0 -20   XYZ
    dof rx
    limits (-10.0 170.0)
 end
 begin
     id 9 
     name rfoot
     direction -0.0999372 -0.274575 0.956358   
     length 1.78783  
     axis -90 -7.62852e-016 -20   XYZ
    dof rx rz
    limits (-45.0 90.0)
           (-20.0 70.0)
  end
  begin
     id 10 
     name rtoes
     direction -1.53535e-011 -4.21895e-011 1   
     length 0.898614   
     axis -90 -7.62852e-016 -20   XYZ
    dof rx
    limits (-90.0 20.0)
  end
  begin
     id 11 
     name lowerback
     direction -0.011775 0.996164 -0.0867116   
     length 1.91499   
     axis 0 0 0   XYZ
    dof rx ry rz
    limits (-20.0 45.0)
           (-30.0 30.0)
           (-30.0 30.0)
  end
  begin
     id 12 
     name upperback
     direction -0.00189771 0.999673 -0.0254833   
     length 1.92213   
     axis 0 0 0   XYZ
    dof rx ry rz
    limits (-20.0 45.0)
           (-30.0 30.0)
           (-30.0 30.0)
  end
  begin
     id 13 
     name thorax
     direction 0.00335995 0.999878 0.0152401   
     length 1.93138   
     axis 0 0 0   XYZ
    dof rx ry rz
    limits (-20.0 45.0)
           (-30.0 30.0)
           (-30.0 30.0)
  end
  begin
     id 14 
     name lowerneck
     direction 0.00233191 0.998509 0.0545404   
     length 1.59408   
     axis 0 0 0   XYZ
    dof rx ry rz
    limits (-20.0 45.0)
           (-30.0 30.0)
           (-30.0 30.0)
  end
  begin
     id 15 
     name upperneck
     direction 0.07881 0.9956 -0.0506934   
     length 1.59344   
     axis 0 0 0   XYZ
    dof rx ry rz
    limits (-20.0 45.0)
           (-30.0 30.0)
           (-30.0 30.0)
  end
  begin
     id 16
     name head
     direction 0.0261681 0.999378 -0.0236299  
     length 1.60935  
     axis 0 0 0   XYZ
    dof rx ry rz
    limits (-20.0 45.0)
           (-30.0 30.0)
           (-30.0 30.0)
  end
  begin
     id 17 
     name lclavicle
     direction 0.96643 0.252035 0.0499195  
     length 3.82153  
     axis 0 0 0   XYZ
    dof ry rz
    limits (-20.0 10.0)
           (0.0 20.0)
  end
  begin
     id 18 
     name lhumerus
     direction 1 -4.48967e-011 -2.01614e-018   
     length 4.87796   
     axis 180 -30 -90   XYZ
    dof rx ry rz
    limits (-60.0 90.0)
           (-90.0 90.0)
           (-90.0 90.0)
  end
  begin
     id 19
     name lradius
     direction 1 -4.48958e-011 3.1409e-027   
     length 3.23169   
     axis 180 -30 -90   XYZ
    dof rx
    limits (-10.0 170.0)
  end
  begin
     id 20
     name lwrist
     direction 1 -4.48924e-011 1.0365e-027   
     length 1.61584   
     axis -2.56395e-016 90 90   XYZ
    dof ry
    limits (-180.0 0.0)
 end
  begin
     id 21 
     name lhand
     direction 1 -4.49055e-011 2.09488e-027   
     length 0.731324   
     axis -1.32723e-015 90 90   XYZ
    dof rx rz
    limits (-90.0 90.0)
           (-45.0 45.0)
  end
  begin
     id 22 
     name lfingers
     direction 1 -4.48935e-011 4.14981e-027   
     length 0.589612   
     axis -2.6545e-015 90 90   XYZ
    dof rx
    limits (0.0 90.0)
  end
  begin
     id 23
     name lthumb
     direction 0.707107 -6.35097e-011 0.707107   
     length 0.846569   
     axis -90 45 5.05613e-014   XYZ
    dof rx rz
    limits (-45.0 45.0)
           (-45.0 45.0)
  end
  begin
     id 24 
     name rclavicle
     direction -0.979337 0.201016 0.0221522   
     length 3.73827  
     axis 0 0 0   XYZ 
    dof ry rz
    limits (-10.0 20.0)
           (-20.0 0.0)
  end
  begin
     id 25 
     name rhumerus
     direction -1 -4.48971e-011 1.65907e-027  
     length 4.9143   
     axis 180 30 90   XYZ
    dof rx ry rz
    limits (-90.0 60.0)
           (-90.0 90.0)
           (-90.0 90.0)
  end
  begin
     id 26 
     name rradius
     direction -1 -4.4894e-011 2.17871e-028   
     length 3.29093   
     axis 180 30 90   XYZ
    dof rx
    limits (-10.0 170.0)
  end
  begin
     id 27 
     name rwrist
     direction -1 -4.48971e-011 1.04038e-027   
     length 1.64546   
     axis -2.56395e-016 -90 -90   XYZ
    dof ry
    limits (-180.0 0.0)
  end
  begin
     id 28
     name rhand
     direction -1 -4.49017e-011 2.08843e-027   
     length 0.54512   
     axis -1.32723e-015 -90 -90   XYZ
    dof rx rz
    limits (-90.0 90.0)
           (-45.0 45.0)
  end
  begin
     id 29
     name rfingers
     direction -1 -4.48918e-011 4.1439e-027   
     length 0.43949   
     axis -2.6545e-015 -90 -90   XYZ
    dof rx
    limits (0.0 90.0)
  end
  begin
     id 30
     name rthumb
     direction -0.707107 -6.35065e-011 0.707107   
     length 0.631022   
     axis -90 -45 -5.05613e-014   XYZ
    dof rx rz
    limits (-45.0 45.0)
           (-45.0 45.0)
  end
:hierarchy
  begin
    root lhipjoint rhipjoint lowerback
    lhipjoint lfemur
    lfemur ltibia
    ltibia lfoot
    lfoot ltoes
    rhipjoint rfemur
    rfemur rtibia
    rtibia rfoot
    rfoot rtoes
    lowerback upperback
    upperback thorax
    thorax lowerneck lclavicle rclavicle
    lowerneck upperneck
    upperneck head
    lclavicle lhumerus
    lhumerus lradius
    lradius lwrist
    lwrist lhand lthumb
    lhand lfingers
    rclavicle rhumerus
    rhumerus rradius
    rradius rwrist
    rwrist rhand rthumb
    rhand rfingers
  end

#!OML:ASF H:\BreakDance\Project 1\Capture day 1\Session 1\Male.ASF
:FULLY-SPECIFIED
:DEGREES
958
root 14.125 17.6798 -1.55723 -167.739 -65.5467 177.928
lowerback 5.56103 3.6749 -0.961443
upperback 5.41866 4.61666 -4.50913
thorax 2.79546 2.24173 -4.26907
lowerneck -3.70048 6.59648 0.682801
upperneck -15.313 8.202 -2.56909
head -4.2409 3.93248 -1.15859
rclavicle -4.92986e-014 -1.03368e-014
rhumerus -41.911 36.8833 -61.9871
rradius 48.053
rwrist -34.3544
rhand -14.0804 -28.0633
rfingers 7.12502
rthumb 12.0516 -57.6963
lclavicle -4.92986e-014 -1.03368e-014
lhumerus -26.4593 13.2192 43.6732
lradius 27.86
lwrist -0.188396
lhand -25.8356 -22.0213
lfingers 7.12502
lthumb 0.70454 7.9573
rfemur -22.2657 -14.1429 18.6279
rtibia 34.5271
rfoot -4.34587 -21.9363
rtoes 2.29733
lfemur -45.0886 26.8619 -14.3632
ltibia 87.7739
lfoot -3.54602 -12.4829
ltoes -32.6272
959
root 14.0472 17.6434 -1.50741 -168.457 -66.2664 178.488
lowerback 5.5165 3.86384 -0.890554
upperback 5.47659 4.86835 -4.75548
thorax 2.92946 2.37298 -4.56786
lowerneck -3.77475 6.34882 0.996397
upperneck -15.184 7.88438 -2.49207
head -4.17435 3.75961 -1.17168
rclavicle -2.0276e-014 -5.725e-014
rhumerus -39.8565 37.9934 -58.964
rradius 45.8124
rwrist -34.5928
rhand -13.2293 -28.3547
rfingers 7.12502
rthumb 12.8722 -57.9378
lclavicle -2.0276e-014 -5.725e-014
lhumerus -25.2097 11.2458 42.1676
lradius 26.9472
lwrist 0.00794203
lhand -25.6024 -22.0158
lfingers 7.12502
lthumb 0.929779 7.96196
rfemur -22.7914 -15.3403 19.9814
rtibia 37.1826
rfoot -5.7307 -17.8385
rtoes -2.75443
lfemur -45.0696 24.3196 -14.2429
ltibia 83.6066
lfoot -4.15189 -11.1213
ltoes -32.8186
960
root 13.9661 17.5901 -1.45904 -169.225 -67.0086 179.037
lowerback 5.53754 4.02667 -0.91143
upperback 5.51267 5.07858 -4.96896
thorax 2.99209 2.47931 -4.78518
lowerneck -3.79974 6.11586 1.35741
upperneck -15.0378 7.58957 -2.40334
head -4.11017 3.59594 -1.1915
rclavicle 8.11041e-014 -8.34896e-014
rhumerus -37.5348 38.8316 -55.7392
rradius 43.429
rwrist -34.4156
rhand -12.4899 -28.8077
rfingers 7.12502
rthumb 13.5849 -58.3444
lclavicle 8.11041e-014 -8.34896e-014
lhumerus -24.0704 8.76233 40.8373
lradius 26.2465
lwrist 0.539203
lhand -25.2309 -21.8138
lfingers 7.12502
lthumb 1.28858 8.16208
rfemur -23.128 -16.341 21.296
rtibia 39.6089
rfoot -7.13 -13.4374
rtoes -7.6586
lfemur -44.8045 21.766 -13.9469
ltibia 79.1967
lfoot -4.90082 -9.55277
ltoes -32.8344
961
root 13.88 17.5251 -1.41409 -169.997 -67.7791 179.546
lowerback 5.5965 4.16064 -1.02709
upperback 5.52195 5.24472 -5.15314
thorax 2.99134 2.55924 -4.92175
lowerneck -3.78112 5.87291 1.65826
upperneck -14.8596 7.29396 -2.22067
head -4.05031 3.43259 -1.17189
rclavicle -4.77083e-014 5.1684e-014
rhumerus -34.9531 39.3072 -52.3075
rradius 40.9552
rwrist -33.7692
rhand -11.861 -29.4097
rfingers 7.12502
rthumb 14.191 -58.9049
lclavicle -4.77083e-014 5.1684e-014
lhumerus -23.085 5.81871 39.6358
lradius 25.7799
lwrist 1.33062
lhand -24.6794 -21.3801
lfingers 7.12502
lthumb 1.82118 8.59188
rfemur -23.2496 -17.1996 22.5709
rtibia 41.6781
rfoot -8.36669 -8.9191
rtoes -11.8932
lfemur -44.3403 19.2164 -13.5176
ltibia 74.5869
lfoot -5.71526 -7.67463
ltoes -32.7081
962
root 13.7876 17.4537 -1.37435 -170.737 -68.5808 180.013
lowerback 5.63042 4.26147 -1.23157
upperback 5.50896 5.36493 -5.30363
thorax 2.96553 2.61247 -4.97154
lowerneck -3.72397 5.62249 1.85045
upperneck -14.6664 7.00191 -1.92624
head -4.00142 3.27307 -1.09902
rclavicle -3.45885e-014 -2.22639e-014
rhumerus -32.11 39.3327 -48.6608
rradius 38.4482
rwrist -32.5925
rhand -11.3878 -30.154
rfingers 7.12502
rthumb 14.6469 -59.6167
lclavicle -3.45885e-014 -2.22639e-014
lhumerus -22.2718 2.49597 38.5374
lradius 25.5468
lwrist 2.31168
lhand -23.9464 -20.7947
lfingers 7.12502
lthumb 2.52915 9.17005
rfemur -23.1512 -17.9625 23.8201
rtibia 43.2765
rfoot -9.25491 -4.39352
rtoes -14.7772
lfemur -43.7395 16.6886 -12.9859
ltibia 69.8307
lfoot -6.52997 -5.36512
ltoes -32.7016
963
root 13.688 17.3801 -1.34114 -171.414 -69.4196 180.44
lowerback 5.57197 4.32865 -1.52687
upperback 5.48173 5.44344 -5.40741
thorax 2.95861 2.64146 -4.91425
lowerneck -3.64432 5.35665 1.87494
upperneck -14.4518 6.70377 -1.50206
head -3.96003 3.11484 -0.955977
rclavicle -1.11319e-014 -1.74931e-014
rhumerus -29.0177 38.8272 -44.7988
rradius 35.9662
rwrist -30.8821
rhand -11.1385 -31.0355
rfingers 7.12502
rthumb 14.8871 -60.4806
lclavicle -1.11319e-014 -1.74931e-014
lhumerus -21.6249 -1.09241 37.5422
lradius 25.5224
lwrist 3.40645
lhand -23.073 -20.2078
lfingers 7.12502
lthumb 3.37263 9.74529
rfemur -22.8413 -18.6727 25.0582
rtibia 44.3167
rfoot -9.60024 0.0528493
rtoes -15.6128
lfemur -43.0763 14.2097 -12.3821
ltibia 65.0065
lfoot -7.27843 -2.56115
ltoes -33.0926
964
root 13.5808 17.3064 -1.31514 -171.991 -70.295 180.812
lowerback 5.38135 4.36649 -1.88979
upperback 5.44257 5.49087 -5.47423
thorax 2.99929 2.65281 -4.77006
lowerneck -3.5389 5.06851 1.7545
upperneck -14.2178 6.38641 -0.977994
head -3.92436 2.95121 -0.756251
rclavicle 5.32743e-014 1.11319e-014
rhumerus -25.7276 37.6772 -40.7777
rradius 33.571
rwrist -28.6634
rhand -11.1303 -32.0577
rfingers 7.12502
rthumb 14.895 -61.5022
lclavicle 5.32743e-014 1.11319e-014
lhumerus -21.1086 -4.86678 36.6394
lradius 25.6826
lwrist 4.58119
lhand -22.0981 -19.7462
lfingers 7.12502
lthumb 4.31406 10.1899
rfemur -22.3318 -19.3289 26.2679
rtibia 44.7411
rfoot -9.13662 4.34064
rtoes -12.9779
lfemur -42.4321 11.8275 -11.7487
ltibia 60.227
lfoot -7.81942 0.681656
ltoes -33.5932
965
root 13.4665 17.2331 -1.296 -172.448 -71.1951 181.118
lowerback 5.05208 4.38672 -2.26954
upperback 5.38863 5.52654 -5.53514
thorax 3.09849 2.65838 -4.59994
lowerneck -3.42112 4.75729 1.53161
upperneck -13.9458 6.04706 -0.362367
head -3.88248 2.77913 -0.508803
rclavicle 8.74653e-015 1.59028e-015
rhumerus -22.3507 35.8025 -36.7414
rradius 31.3075
rwrist -25.9646
rhand -11.3338 -33.156
rfingers 7.12502
rthumb 14.6989 -62.6149
lclavicle 8.74653e-015 1.59028e-015
lhumerus -20.6606 -8.80008 35.7922
lradius 26.0169
lwrist 5.85579
lhand -21.0576 -19.4569
lfingers 7.12502
lthumb 5.31875 10.4563
rfemur -21.6274 -19.9292 27.4313
rtibia 44.5454
rfoot -7.71763 8.07985
rtoes -5.86634
lfemur -41.8956 9.63193 -11.138
ltibia 55.6366
lfoot -8.13205 4.17014
ltoes -33.8714
966
root 13.3467 17.1593 -1.28297 -172.767 -72.1024 181.326
lowerback 4.61163 4.40494 -2.62572
upperback 5.31057 5.57114 -5.62488
thorax 3.24069 2.67014 -4.4656
lowerneck -3.30422 4.41974 1.25782
upperneck -13.6146 5.67886 0.332675
head -3.82135 2.59348 -0.225579
rclavicle 8.98507e-014 3.18055e-015
rhumerus -19.033 33.2409 -32.8694
rradius 29.2211
rwrist -22.8496
rhand -11.6866 -34.24
rfingers 7.12502
rthumb 14.359 -63.7234
lclavicle 8.98507e-014 3.18055e-015
lhumerus -20.219 -12.8995 34.9495
lradius 26.5172
lwrist 7.26928
lhand -20.0141 -19.3347
lfingers 7.12502
lthumb 6.32619 10.5508
rfemur -20.7356 -20.4518 28.5246
rtibia 43.7759
rfoot -5.60603 10.7953
rtoes 5.79411
lfemur -41.5436 7.75652 -10.625
ltibia 51.3894
lfoot -8.31702 7.60792
ltoes -33.7844
967
root 13.2242 17.0836 -1.27463 -172.908 -73.0001 181.372
lowerback 4.10804 4.42897 -2.94055
upperback 5.20029 5.63163 -5.7657
thorax 3.39546 2.69219 -4.40403
lowerneck -3.17221 4.06597 1.03465
upperneck -13.206 5.28824 1.04043
head -3.73152 2.39579 0.0537278
rclavicle 4.77083e-015 1.90833e-014
rhumerus -15.875 30.1829 -29.2903
rradius 27.3734
rwrist -19.4261
rhand -12.1278 -35.2214
rfingers 7.12502
rthumb 13.9339 -64.7345
lclavicle 4.77083e-015 1.90833e-014
lhumerus -19.7476 -17.17 34.0645
lradius 27.1675
lwrist 8.84667
lhand -19.0291 -19.3701
lfingers 7.12502
lthumb 7.27704 10.4848
rfemur -19.633 -20.8569 29.504
rtibia 42.5431
rfoot -4.12101 12.0321
rtoes 17.0903
lfemur -41.4205 6.35999 -10.313
ltibia 47.6214
lfoot -8.51455 10.6004
ltoes -33.3387
968
root 13.1019 17.0035 -1.26927 -172.854 -73.872 181.212
lowerback 3.58798 4.46462 -3.20102
upperback 5.05828 5.71148 -5.96466
thorax 3.53962 2.72665 -4.43314
lowerneck -3.03663 3.70532 0.914186
upperneck -12.6895 4.88188 1.71698
head -3.59749 2.18972 0.305653
rclavicle 6.99722e-014 3.65764e-014
rhumerus -12.9127 26.9124 -26.0599
rradius 25.8271
rwrist -15.8852
rhand -12.584 -36.0378
rfingers 7.12502
rthumb 13.4942 -65.5806
lclavicle 6.99722e-014 3.65764e-014
lhumerus -19.2154 -21.5838 33.0986
lradius 27.9494
lwrist 10.5498
lhand -18.1453 -19.4955
lfingers 7.12502
lthumb 8.13007 10.3281
rfemur -18.3333 -21.1231 30.352
rtibia 40.996
rfoot -4.37822 11.7761
rtoes 24.3938
lfemur -41.5379 5.60584 -10.307
ltibia 44.4281
lfoot -8.7912 12.7524
ltoes -32.4094
